<svg version="1.1" xmlns="http://www.w3.org/2000/svg" xmlns:xlink="http://www.w3.org/1999/xlink" width="242" height="259"><defs/><g><path fill="rgb(213,85,26)" stroke="none" paint-order="stroke fill markers" fill-rule="evenodd" d=" M 61.87602233886719 32.25820827484131 C 61.87602233886719 32.25820827484131 68.86756134033203 35.29940414428711 68.86756134033203 35.29940414428711 C 64.01778411865234 38.25949001312256 61.829444885253906 41.15412998199463 62.38299560546875 43.910797119140625 C 62.95256805419922 46.75887393951416 65.5641098022461 49.21427536010742 70.15238952636719 51.21134090423584 C 74.37869262695312 53.050692558288574 79.35824584960938 54.0463285446167 85.37772369384766 54.2559700012207 C 91.31331634521484 54.460890769958496 100.46996307373047 52.79663372039795 112.60333251953125 49.30525588989258 C 115.61747741699219 48.43557643890381 117.98011016845703 47.92960453033447 119.620849609375 47.803433418273926 C 121.2270278930664 47.67747688293457 122.52181243896484 47.85729217529297 123.69815063476562 48.37055969238281 C 124.5079345703125 48.7228946685791 126.97642517089844 49.794705390930176 120.77326965332031 52.495582580566406 C 116.7439193725586 54.248459815979004 112.57140350341797 54.970295906066895 108.37439727783203 54.64134979248047 C 105.05355072021484 54.38321399688721 101.69093322753906 54.993470191955566 99.7813720703125 56.20389747619629 C 99.7813720703125 56.20389747619629 96.0533447265625 58.56724548339844 96.0533447265625 58.56724548339844 C 94.42393493652344 59.59914493560791 94.09388732910156 60.91922092437744 95.16837310791016 62.07986640930176 C 96.24102783203125 63.240726470947266 98.5823745727539 64.08830451965332 101.39876556396484 64.34043216705322 C 110.60462188720703 65.16419219970703 119.69145965576172 64.10761642456055 128.42147064208984 61.2149076461792 C 128.42147064208984 61.2149076461792 137.85895538330078 65.32276439666748 137.85895538330078 65.32276439666748 C 141.2129898071289 66.78188610076904 146.64630126953125 66.78188610076904 149.99896240234375 65.32598304748535 C 153.3503646850586 63.866217613220215 153.3503646850586 61.500938415527344 149.99896240234375 60.042245864868164 C 149.99896240234375 60.042245864868164 140.23291778564453 55.79212474822998 140.23291778564453 55.79212474822998 C 144.5225067138672 53.075154304504395 146.7787094116211 50.32921600341797 146.93709564208984 47.61310386657715 C 147.12603759765625 44.43543720245361 144.55111694335938 41.661603927612305 139.28614807128906 39.369924545288086 C 135.52813720703125 37.734206199645996 131.24198150634766 36.72204780578613 126.55390930175781 36.36263179779053 C 121.86515045166016 35.99978256225586 117.42060852050781 36.202128410339355 113.35189056396484 36.96280288696289 C 109.33787536621094 37.71510887145996 103.22856140136719 39.232595443725586 95.23097229003906 41.46376419067383 C 91.75048065185547 42.42506790161133 89.3897933959961 42.9151611328125 88.20681762695312 42.92245674133301 C 87.07637023925781 42.92846488952637 86.0631103515625 42.74993705749512 85.2779312133789 42.40704345703125 C 82.49140930175781 41.1972599029541 84.83275604248047 39.667113304138184 87.28728485107422 38.599164962768555 C 90.3346176147461 37.273295402526855 93.58622741699219 36.64716053009033 96.94964599609375 36.7353515625 C 100.32164764404297 36.82418632507324 103.50196075439453 36.03947925567627 105.06625366210938 34.73828601837158 C 105.06625366210938 34.73828601837158 107.22872924804688 32.9401330947876 107.22872924804688 32.9401330947876 C 108.59664154052734 31.803305625915527 108.52339935302734 30.43945598602295 107.03772735595703 29.329236030578613 C 105.55331420898438 28.220947265625 102.86189270019531 27.52035427093506 99.91309356689453 27.47658061981201 C 93.51298522949219 27.385170936584473 87.34049987792969 28.238113403320312 81.13013458251953 30.07210063934326 C 81.13013458251953 30.07210063934326 74.01488494873047 26.976616859436035 74.01488494873047 26.976616859436035 C 70.66142272949219 25.51728057861328 65.2275390625 25.51728057861328 61.87476348876953 26.976616859436035 C 58.525306701660156 28.43445110321045 58.525306701660156 30.79973030090332 61.87602233886719 32.25820827484131 Z M 209.5395965576172 69.9889497756958 C 210.10779571533203 67.63354110717773 210.39859008789062 65.23457336425781 210.39859008789062 62.8029899597168 C 210.39859008789062 62.8029899597168 210.39859008789062 55.116851806640625 210.39859008789062 55.116851806640625 C 210.39859008789062 39.7591667175293 198.89659118652344 25.71705150604248 178.01112365722656 15.57744312286377 C 158.64852142333984 6.176836967468262 133.05243682861328 0.9999589920043945 105.93783569335938 0.9999589920043945 C 78.82323455810547 0.9999589920043945 53.22772216796875 6.176836967468262 33.86454772949219 15.57744312286377 C 12.979080200195312 25.71705150604248 1.477081298828125 39.7591667175293 1.477081298828125 55.116851806640625 C 1.477081298828125 55.116851806640625 1.477081298828125 62.8029899597168 1.477081298828125 62.8029899597168 C 1.477081298828125 77.94760036468506 12.668373107910156 91.81011486053467 33.00624084472656 101.91517639160156 C 32.442047119140625 104.25921249389648 32.078125 107.1802453994751 32.078125 109.06658935546875 C 32.078125 109.06658935546875 32.078125 110.4686336517334 32.078125 110.4686336517334 C 12.325050354003906 120.53271102905273 1.477081298828125 134.20489597320557 1.477081298828125 149.1179780960083 C 1.477081298828125 149.1179780960083 1.477081298828125 156.80411624908447 1.477081298828125 156.80411624908447 C 1.477081298828125 167.15980339050293 6.7141265869140625 176.91531944274902 16.524803161621094 185.28252410888672 C 15.197402954101562 188.81917762756348 14.505378723144531 192.46805477142334 14.505378723144531 196.1969690322876 C 14.505378723144531 196.1969690322876 14.505378723144531 203.88289260864258 14.505378723144531 203.88289260864258 C 14.505378723144531 219.2405776977539 26.00737762451172 233.2829074859619 46.892845153808594 243.42230129241943 C 66.25601959228516 252.82290744781494 91.85153198242188 258 118.96613311767578 258 C 146.0807342529297 258 171.67693328857422 252.82290744781494 191.03942108154297 243.42230129241943 C 211.92488861083984 233.2829074859619 223.42688751220703 219.2405776977539 223.42688751220703 203.88289260864258 C 223.42688751220703 203.88289260864258 223.42688751220703 196.1969690322876 223.42688751220703 196.1969690322876 C 223.42688751220703 185.84299850463867 218.1945343017578 176.08898448944092 208.3878631591797 167.72306728363037 C 209.71400451660156 164.18577003479004 210.3979034423828 160.5336742401123 210.3979034423828 156.80411624908447 C 210.3979034423828 156.80411624908447 210.3979034423828 155.40185737609863 210.3979034423828 155.40185737609863 C 230.1509780883789 145.3379945755005 240.9989471435547 131.66580963134766 240.9989471435547 116.75186920166016 C 240.9989471435547 116.75186920166016 240.9989471435547 109.06594562530518 240.9989471435547 109.06594562530518 C 240.9996337890625 93.9391450881958 229.83363342285156 80.0912218093872 209.5395965576172 69.9889497756958 Z M 16.07562255859375 48.61260223388672 C 19.100982666015625 40.944488525390625 27.341415405273438 33.4993200302124 39.691078186035156 27.50383186340332 C 57.27515411376953 18.966897010803223 80.80203247070312 14.265521049499512 105.93783569335938 14.265521049499512 C 131.07363891601562 14.265521049499512 154.601318359375 18.966897010803223 172.1845932006836 27.50383186340332 C 184.53494262695312 33.4993200302124 192.77468872070312 40.9451322555542 195.800048828125 48.61260223388672 C 185.1118392944336 67.14602279663086 147.97702026367188 80.65963554382324 105.93714904785156 80.65963554382324 C 63.89739227294922 80.65963554382324 26.763259887695312 67.14666652679443 16.07562255859375 48.61260223388672 Z M 16.07562255859375 142.61458683013916 C 18.53553009033203 136.38048934936523 24.459793090820312 130.29809761047363 33.221160888671875 125.01779365539551 C 36.59648132324219 137.10876274108887 47.395240783691406 148.0043249130249 64.46627807617188 156.29213619232178 C 83.82945251464844 165.69274234771729 109.42496490478516 170.86962032318115 136.5394515991211 170.86962032318115 C 139.18955993652344 170.86962032318115 141.82112884521484 170.80524730682373 144.43793487548828 170.70782947540283 C 132.60062408447266 173.2454137802124 119.52838134765625 174.66226387023926 105.93852233886719 174.66226387023926 C 63.898651123046875 174.66162014007568 26.763259887695312 161.1480073928833 16.07562255859375 142.61458683013916 Z M 208.82903289794922 189.6927194595337 C 198.14070892333984 208.22614002227783 161.00588989257812 221.73975276947021 118.96613311767578 221.73975276947021 C 82.44609069824219 221.73975276947021 49.647438049316406 211.53662967681885 34.65373229980469 196.7089490890503 C 53.92169189453125 205.8722333908081 79.18452453613281 210.9210090637207 105.93783569335938 210.9210090637207 C 133.05243682861328 210.9210090637207 158.64852142333984 205.74413108825684 178.01112365722656 196.34352493286133 C 188.0433578491211 191.47241878509521 195.90384674072266 185.699875831604 201.37103271484375 179.31450176239014 C 204.89947509765625 182.6460199356079 207.4290771484375 186.1442642211914 208.82903289794922 189.6927194595337 Z M 136.53887939453125 134.61001682281494 C 99.83390045166016 134.61001682281494 66.87022399902344 124.30797386169434 51.980201721191406 109.35841369628906 C 68.0598373413086 114.27608299255371 86.60590362548828 116.91988277435303 105.93783569335938 116.91988277435303 C 133.05243682861328 116.91988277435303 158.64852142333984 111.74300479888916 178.01112365722656 102.34282779693604 C 189.73605346679688 96.6507511138916 198.502685546875 89.72807693481445 203.93805694580078 82.0339994430542 C 215.64227294921875 87.92713451385498 223.47220611572266 95.13841438293457 226.40166473388672 102.56319808959961 C 215.71414184570312 121.09576034545898 178.5786361694336 134.61001682281494 136.53887939453125 134.61001682281494 Z"/></g></svg>