<?xml version="1.0" encoding="UTF-8" standalone="no"?>
<svg
   xmlns:dc="http://purl.org/dc/elements/1.1/"
   xmlns:cc="http://creativecommons.org/ns#"
   xmlns:rdf="http://www.w3.org/1999/02/22-rdf-syntax-ns#"
   xmlns:svg="http://www.w3.org/2000/svg"
   xmlns="http://www.w3.org/2000/svg"
   xmlns:sodipodi="http://sodipodi.sourceforge.net/DTD/sodipodi-0.dtd"
   xmlns:inkscape="http://www.inkscape.org/namespaces/inkscape"
   version="1.1"
   width="65"
   height="56"
   id="svg8"
   sodipodi:docname="phoenix.svg"
   inkscape:version="0.92.2 (unknown)">
  <metadata
     id="metadata12">
    <rdf:RDF>
      <cc:Work
         rdf:about="">
        <dc:format>image/svg+xml</dc:format>
        <dc:type
           rdf:resource="http://purl.org/dc/dcmitype/StillImage" />
        <dc:title></dc:title>
      </cc:Work>
    </rdf:RDF>
  </metadata>
  <sodipodi:namedview
     pagecolor="#ffffff"
     bordercolor="#666666"
     borderopacity="1"
     objecttolerance="10"
     gridtolerance="10"
     guidetolerance="10"
     inkscape:pageopacity="0"
     inkscape:pageshadow="2"
     inkscape:window-width="1299"
     inkscape:window-height="713"
     id="namedview10"
     showgrid="false"
     inkscape:zoom="4.2142857"
     inkscape:cx="32.5"
     inkscape:cy="28"
     inkscape:window-x="67"
     inkscape:window-y="27"
     inkscape:window-maximized="1"
     inkscape:current-layer="svg8" />
  <defs
     id="defs2">
    <filter
       y="-0.2"
       width="1.2"
       height="1.4"
       x="-0.1"
       inkscape:label="Fire"
       inkscape:menu="Protrusions"
       inkscape:menu-tooltip="Edges of object are on fire"
       style="color-interpolation-filters:sRGB;"
       id="filter60">
      <feMorphology
         result="result1"
         radius="2.4"
         operator="dilate"
         id="feMorphology34" />
      <feTurbulence
         baseFrequency="0.09 0.028"
         numOctaves="1"
         id="feTurbulence36" />
      <feColorMatrix
         result="result2"
         values="2 0 0 0 0 0 2 0 0 0 0 0 0 0 0 0 0 0 1 0"
         id="feColorMatrix38" />
      <feDisplacementMap
         result="result4"
         scale="10.319410319410318"
         yChannelSelector="G"
         xChannelSelector="R"
         in="result1"
         in2="result2"
         id="feDisplacementMap40" />
      <feFlood
         result="result3"
         flood-opacity="1"
         flood-color="rgb(255,159,54)"
         id="feFlood42" />
      <feMorphology
         radius="3.8"
         result="result7"
         in="result4"
         id="feMorphology44" />
      <feGaussianBlur
         result="result7"
         in="result7"
         stdDeviation="2.4"
         id="feGaussianBlur46" />
      <feComposite
         result="result5"
         in2="result4"
         in="result3"
         operator="in"
         id="feComposite48" />
      <feComposite
         operator="out"
         in2="result7"
         id="feComposite50" />
      <feOffset
         result="result6"
         dy="-7"
         dx="-4.5"
         id="feOffset52" />
      <feGaussianBlur
         result="result7"
         stdDeviation="4.8"
         id="feGaussianBlur54" />
      <feComposite
         in="SourceGraphic"
         in2="result6"
         id="feComposite56" />
      <feComposite
         in2="result7"
         id="feComposite58" />
    </filter>
  </defs>
  <g
     id="g6"
     style="filter:url(#filter60)">
    <path
       fill="rgb(213,85,26)"
       stroke="none"
       paint-order="stroke fill markers"
       fill-rule="evenodd"
       d=" M 52.39942169189453 18.035325050354004 C 49.235816955566406 21.825393676757812 46.655860900878906 22.872528076171875 46.655860900878906 22.872528076171875 C 46.655860900878906 22.872528076171875 43.459869384765625 10.541447639465332 35.71668243408203 9.556325912475586 C 27.97406768798828 8.573349952697754 12.839141845703125 6.269439697265625 11.013236999511719 1.1092987060546875 C 11.013236999511719 1.1092987060546875 9.775100708007812 8.387955665588379 14.470497131347656 11.954864501953125 C 16.395736694335938 13.416775703430176 18.202987670898438 14.315637588500977 19.672752380371094 14.866026878356934 C 20.51801300048828 15.093049049377441 21.509071350097656 15.120514869689941 22.28795623779297 15.063437461853027 C 33.09564208984375 14.216717720031738 33.733192443847656 20.449098587036133 33.733192443847656 20.449098587036133 C 33.733192443847656 20.449098587036133 33.19532012939453 17.896493911743164 28.7716064453125 16.168292999267578 C 27.64630889892578 15.7307710647583 25.95555877685547 15.358480453491211 23.108612060546875 15.771540641784668 C 21.165634155273438 16.04319477081299 17.772804260253906 17.832764625549316 13.067680358886719 18.215354919433594 C 8.006645202636719 18.630775451660156 1.75714111328125 16.654094696044922 1.75714111328125 16.654094696044922 C 1.75714111328125 16.654094696044922 2.4661026000976562 22.585424423217773 10.08111572265625 25.139531135559082 C 17.69567108154297 27.68870258331299 16.780029296875 26.55380630493164 24.95111083984375 32.95205497741699 C 26.234222412109375 33.95627403259277 31.123825073242188 35.361751556396484 31.123825073242188 35.361751556396484 C 31.123825073242188 35.361751556396484 19.366622924804688 41.7235221862793 15.053916931152344 43.698486328125 C 10.74395751953125 45.679887771606445 5.8355865478515625 49.1118278503418 11.656623840332031 51.55564212799072 C 17.483154296875 53.997525215148926 18.171859741210938 54.519375801086426 22.61365509033203 52.622732162475586 C 27.057510375976562 50.72823429107666 29.383407592773438 44.22012233734131 32.63627624511719 43.22856330871582 C 32.63627624511719 43.22856330871582 46.174522399902344 40.77831172943115 50.11643981933594 38.6647310256958 C 54.05778503417969 36.54921913146973 58.57282257080078 33.68826770782471 57.420631408691406 24.467476844787598 C 57.420631408691406 24.467476844787598 56.96160888671875 20.702299118041992 60.26002502441406 19.46762466430664 C 63.50465393066406 18.2526912689209 63.65708923339844 17.410263061523438 63.65869140625 17.379578590393066 C 63.64484405517578 17.38322639465332 63.44697570800781 17.3587646484375 61.52024841308594 16.775330543518066 C 59.24745178222656 16.082676887512207 55.56256866455078 14.243110656738281 52.39942169189453 18.035325050354004 Z"
       id="path4" />
  </g>
</svg>
